<svg width="859" height="389" viewBox="0 0 859 389" fill="none" xmlns="http://www.w3.org/2000/svg">
<circle cx="339.597" cy="345.988" r="30.3498" stroke="white" stroke-width="24.2799"/>
<circle cx="533.833" cy="345.988" r="30.3498" stroke="white" stroke-width="24.2799"/>
<circle cx="339.597" cy="42.4898" r="30.3498" stroke="white" stroke-width="24.2799"/>
<circle cx="533.833" cy="42.4898" r="30.3498" stroke="white" stroke-width="24.2799"/>
<circle cx="436.716" cy="194.239" r="20.3778" stroke="white" stroke-width="19.9442"/>
<path d="M526.077 321.603L505.174 333.954L443.734 229.981C452.069 228.353 459.384 223.884 464.634 217.622L526.077 321.603ZM429.696 158.497C421.362 160.124 414.046 164.593 408.796 170.854L347.354 66.8752L368.257 54.5237L429.696 158.497Z" fill="white"/>
<path d="M408.798 217.628C414.049 223.888 421.366 228.355 429.701 229.981L368.261 333.955L347.357 321.603L408.798 217.628ZM526.083 66.8776L464.636 170.86C459.387 164.598 452.072 160.128 443.739 158.5L505.18 54.526L526.083 66.8776Z" fill="white"/>
<path d="M167.165 107.254V280.888H148.617C145.825 280.888 143.472 280.45 141.557 279.572C139.642 278.615 137.768 277.019 135.933 274.786L49.4149 164.694C49.6543 167.486 49.8138 170.238 49.8936 172.95C50.0532 175.663 50.1329 178.176 50.1329 180.489V280.888H18.4217V107.254H37.3288C38.8445 107.254 40.1209 107.334 41.158 107.494C42.2749 107.573 43.2721 107.853 44.1497 108.331C45.0272 108.73 45.8649 109.289 46.6626 110.007C47.4604 110.725 48.338 111.682 49.2953 112.879L136.411 223.449C136.092 220.418 135.853 217.506 135.693 214.714C135.534 211.842 135.454 209.129 135.454 206.576V107.254H167.165ZM239.668 135.376V180.011H297.585V207.175H239.668V252.767H314.099V280.888H203.529V107.254H314.099V135.376H239.668Z" fill="white"/>
<path d="M636.652 252.169C642.475 252.169 647.701 251.211 652.328 249.297C656.955 247.302 660.864 244.51 664.055 240.92C667.246 237.33 669.679 232.982 671.354 227.877C673.03 222.771 673.867 217.027 673.867 210.645V107.254H709.767V210.645C709.767 221.176 708.052 230.868 704.621 239.724C701.271 248.499 696.444 256.078 690.142 262.46C683.839 268.842 676.181 273.828 667.166 277.418C658.151 281.008 647.98 282.803 636.652 282.803C625.323 282.803 615.112 281.008 606.017 277.418C597.002 273.828 589.344 268.842 583.042 262.46C576.739 256.078 571.873 248.499 568.442 239.724C565.092 230.868 563.416 221.176 563.416 210.645V107.254H599.316V210.645C599.316 217.027 600.154 222.771 601.829 227.877C603.504 232.982 605.937 237.33 609.129 240.92C612.32 244.51 616.229 247.302 620.856 249.297C625.483 251.211 630.748 252.169 636.652 252.169ZM837.956 140.521C836.839 142.356 835.683 143.712 834.486 144.59C833.369 145.388 831.893 145.787 830.058 145.787C828.303 145.787 826.389 145.188 824.314 143.992C822.32 142.715 819.967 141.359 817.254 139.923C814.542 138.487 811.431 137.171 807.92 135.974C804.41 134.698 800.302 134.059 795.595 134.059C787.298 134.059 781.075 135.934 776.927 139.684C772.779 143.353 770.704 148.18 770.704 154.163C770.704 157.992 771.821 161.183 774.055 163.736C776.369 166.209 779.36 168.363 783.03 170.198C786.779 172.033 791.008 173.668 795.714 175.104C800.421 176.54 805.248 178.136 810.194 179.891C815.14 181.566 819.967 183.561 824.673 185.874C829.38 188.188 833.569 191.1 837.238 194.61C840.988 198.12 843.979 202.428 846.213 207.534C848.527 212.56 849.683 218.702 849.683 225.962C849.683 233.86 848.287 241.279 845.495 248.22C842.783 255.081 838.834 261.104 833.648 266.289C828.463 271.395 822.041 275.424 814.382 278.375C806.803 281.327 798.188 282.803 788.535 282.803C783.03 282.803 777.525 282.245 772.021 281.128C766.596 280.011 761.331 278.455 756.225 276.461C751.199 274.466 746.452 272.073 741.985 269.281C737.517 266.489 733.608 263.377 730.258 259.947L740.788 242.955C741.666 241.678 742.823 240.641 744.258 239.843C745.694 238.966 747.21 238.527 748.806 238.527C750.96 238.527 753.233 239.325 755.627 240.92C758.02 242.516 760.772 244.271 763.884 246.186C766.995 248.1 770.585 249.855 774.653 251.451C778.802 253.046 783.748 253.844 789.492 253.844C797.868 253.844 804.33 251.929 808.878 248.1C813.505 244.271 815.818 238.567 815.818 230.988C815.818 226.6 814.661 223.05 812.348 220.338C810.114 217.625 807.162 215.352 803.493 213.517C799.823 211.682 795.635 210.126 790.928 208.85C786.221 207.494 781.395 206.018 776.448 204.422C771.502 202.827 766.676 200.912 761.969 198.678C757.262 196.445 753.074 193.493 749.404 189.823C745.734 186.154 742.743 181.606 740.429 176.181C738.195 170.757 737.079 164.016 737.079 155.958C737.079 149.496 738.355 143.234 740.908 137.171C743.461 131.108 747.21 125.723 752.156 121.016C757.103 116.309 763.166 112.52 770.345 109.648C777.605 106.776 785.902 105.34 795.236 105.34C805.687 105.34 815.34 106.975 824.195 110.246C833.13 113.437 840.669 117.905 846.812 123.648L837.956 140.521Z" fill="white"/>
</svg>
